<svg width="160" height="45" viewBox="0 0 160 45" fill="none" xmlns="http://www.w3.org/2000/svg">
<path fill-rule="evenodd" clip-rule="evenodd" d="M148.973 18.573C148.829 18.6015 148.685 18.9145 148.685 19.085C148.656 20.2227 148.627 23.2378 148.627 25.2856C148.627 25.3426 148.713 25.4562 148.8 25.4562C149.232 25.4847 150.271 25.5131 151.165 25.5131C152.405 25.5131 153.126 25.3426 153.529 25.172C154.567 24.66 155.058 23.5505 155.058 22.3274C155.058 19.5686 153.097 18.5161 150.184 18.5161C149.982 18.4879 149.406 18.4879 148.973 18.573ZM156.413 31.2871C156.413 28.4713 154.308 26.9068 150.501 26.9068C150.328 26.9068 149.117 26.8783 148.829 26.9353C148.742 26.9637 148.627 27.0207 148.627 27.1061C148.627 29.1254 148.598 32.3396 148.685 33.5909C148.742 34.1314 149.146 34.8994 149.636 35.1269C150.155 35.4114 151.338 35.4681 152.145 35.4681C154.423 35.4681 156.413 34.2168 156.413 31.2871ZM143.09 17.0088C143.378 17.0088 144.244 17.0939 146.464 17.0939C148.569 17.0939 150.242 17.0373 152.289 17.0373C154.798 17.0373 158.259 17.9189 158.259 21.6164C158.259 23.4369 156.961 24.8875 155.26 25.5986C155.173 25.627 155.173 25.6837 155.26 25.7122C157.682 26.3096 159.816 27.7887 159.816 30.576C159.816 33.3067 158.086 35.0415 155.577 36.1225C154.048 36.7766 152.145 37.0041 150.213 37.0041C148.742 37.0041 144.792 36.8335 142.6 36.8905C142.369 36.8051 142.802 35.781 143.003 35.6105C143.523 35.582 143.926 35.5535 144.474 35.3829C145.253 35.1839 145.339 34.9563 145.455 33.7902C145.512 32.7947 145.512 29.2675 145.512 26.7647C145.512 23.323 145.541 20.9907 145.512 19.8531C145.484 18.9714 145.166 18.6869 144.532 18.5161C144.042 18.4309 143.234 18.317 142.571 18.2319C142.427 18.0895 142.917 17.1224 143.09 17.0088ZM126.45 34.7003C127.143 35.2406 128.498 35.4681 129.709 35.4681C131.267 35.4681 132.824 35.1839 134.323 33.8469C135.852 32.4817 136.919 30.377 136.919 27.0207C136.919 23.8065 135.679 21.1898 133.141 19.654C131.699 18.7721 129.853 18.4025 127.719 18.4025C127.085 18.4025 126.479 18.4309 126.104 18.6015C126.018 18.6585 125.816 18.9145 125.816 19.0566C125.758 19.6255 125.758 24.0056 125.758 26.5656C125.758 29.2108 125.758 32.9083 125.816 33.3349C125.816 33.7617 126.018 34.4159 126.45 34.7003ZM119.904 17.0088C120.452 17.0088 122.557 17.0939 123.567 17.0939C125.383 17.0939 126.681 17.0088 130.113 17.0088C132.997 17.0088 135.419 17.7768 137.149 19.2272C139.254 21.0192 140.35 23.4938 140.35 26.5087C140.35 30.8036 138.36 33.2782 136.371 34.7003C134.381 36.151 131.785 37.0041 128.094 37.0041C126.133 37.0041 122.759 36.9472 119.962 36.9187H119.933C119.789 36.663 120.164 35.6674 120.394 35.6389C121.144 35.5535 121.346 35.525 121.721 35.3829C122.326 35.1554 122.442 34.8424 122.529 33.7902C122.615 31.8276 122.586 29.4669 122.586 26.7932C122.586 24.8875 122.615 21.1613 122.557 19.9667C122.471 18.9714 122.038 18.7154 121.173 18.5446C120.741 18.4594 120.164 18.3455 119.356 18.2603C119.241 18.061 119.76 17.1794 119.904 17.0088Z" fill="#8E714E"/>
<path fill-rule="evenodd" clip-rule="evenodd" d="M85.0103 35.8095C84.2894 35.7241 83.7703 35.6104 83.1357 35.326C83.0493 35.269 82.905 34.9848 82.905 34.8709C82.8472 33.8753 82.8472 31.0311 82.8472 29.1254C82.8472 27.5894 82.5879 26.2526 81.9245 25.314C81.1458 24.2331 80.0212 23.6074 78.5793 23.6074C77.3104 23.6074 75.6089 24.4609 74.1959 25.6555C74.167 25.6837 73.9363 25.883 73.9652 25.57C73.9652 25.2571 74.0229 24.6314 74.0518 24.2049C74.0807 23.8065 73.85 23.6074 73.85 23.6074C72.927 24.0625 70.3316 24.6599 69.38 24.7451C68.6879 24.8875 68.515 25.5416 69.2359 25.7691H69.2648C70.0432 25.9966 70.5623 26.2526 70.966 26.5086C71.2544 26.7362 71.2255 27.0491 71.2255 27.3051C71.2544 29.4383 71.2544 32.7092 71.168 34.5013C71.1392 35.2123 70.9373 35.4681 70.4182 35.582L70.4757 35.5535C70.0721 35.6389 69.7548 35.7241 69.2645 35.781C69.0915 35.9516 69.0915 36.862 69.2645 37.061C69.5818 37.061 71.2544 36.9756 72.6388 36.9756C74.5421 36.9756 75.5226 37.061 76.0128 37.061C76.2146 36.8335 76.2724 35.9801 76.1569 35.781C75.6089 35.7525 75.2053 35.6959 74.8305 35.582C74.3114 35.4681 74.167 35.2123 74.1382 34.6149C74.0807 33.1073 74.0807 29.9219 74.0807 27.7602C74.0807 27.1628 74.2536 26.8783 74.4266 26.7077C75.0898 26.139 76.1569 25.7406 77.1085 25.7406C78.0313 25.7406 78.637 26.0251 79.0984 26.395C79.7328 26.9068 79.9346 27.6463 80.0212 28.1868C80.1653 29.4099 80.1078 31.8276 80.1078 33.9323C80.1078 35.0699 80.0212 35.3544 79.5887 35.4965C79.3869 35.582 78.8677 35.6959 78.262 35.7525C78.0602 35.9516 78.1179 36.8335 78.262 37.0326C79.0984 37.0326 80.0789 36.9471 81.5208 36.9471C83.3086 36.9471 84.4623 37.0326 84.9237 37.0326C85.0678 36.862 85.1255 36.037 85.0101 35.8095H85.0103ZM92.9985 24.9444C91.47 24.9444 90.5183 26.1105 90.5183 27.9308C90.5183 29.7795 91.3545 31.9127 93.7194 31.9127C94.123 31.9127 94.8729 31.7421 95.2188 31.344C95.7668 30.832 96.1418 29.808 96.1418 28.7273C96.1418 26.3665 94.9592 24.9444 92.9985 24.9444ZM92.7964 37.5161C92.2198 37.5161 91.8159 37.6867 91.5566 37.8291C90.3451 38.5968 89.7974 39.3364 89.7974 40.2183C89.7974 41.043 90.1144 41.6971 90.8068 42.2661C91.6429 42.9771 92.7964 43.3186 94.2671 43.3186C97.2086 43.3186 98.5064 41.754 98.5064 40.2183C98.5064 39.1373 97.9585 38.4262 96.8339 38.0281C96.0263 37.6867 94.5556 37.5161 92.7964 37.5161ZM92.9985 44.9113C91.2393 44.9113 89.9703 44.5414 88.8746 43.7167C87.8075 42.9202 87.3461 41.7256 87.3461 40.9009C87.3461 40.6733 87.4039 40.0474 87.923 39.4787C88.24 39.1373 88.9321 38.4832 90.5761 37.374C90.6335 37.3455 90.6624 37.3171 90.6624 37.2601C90.6624 37.2032 90.6047 37.1462 90.5472 37.118C89.1917 36.606 88.788 35.781 88.6725 35.326V35.269C88.6439 35.0984 88.5862 34.9278 88.8457 34.757C89.0476 34.6149 89.336 34.4443 89.653 34.2452C90.1433 33.9608 90.6624 33.6478 90.9797 33.3918C91.0375 33.3349 91.0374 33.2782 91.0374 33.2212C91.0374 33.1643 90.9797 33.1073 90.922 33.0791C88.9035 32.4247 87.8941 30.9456 87.8941 28.7273C87.8941 27.2767 88.5573 25.9682 89.7396 25.1435C90.5472 24.5175 92.5657 23.7498 93.8924 23.7498H93.979C95.3342 23.778 96.0841 24.0625 97.1509 24.4324C97.7278 24.6314 98.2758 24.7166 99.0256 24.7166C100.15 24.7166 100.64 24.3754 101.044 23.9773C101.073 24.034 101.131 24.1764 101.16 24.546C101.188 24.9159 101.073 25.4561 100.784 25.8545C100.554 26.1672 100.035 26.395 99.5158 26.395H99.3715C98.8524 26.3381 98.6217 26.2811 98.6217 26.2811L98.5064 26.3381C98.4776 26.395 98.5064 26.4517 98.5353 26.5371L98.5642 26.5941C98.6217 26.8501 98.7371 27.6178 98.7371 27.8172C98.7371 30.1494 97.7855 31.1732 96.7761 31.9412C95.7956 32.6523 94.671 33.1073 93.4021 33.2212C93.3732 33.2212 93.258 33.2212 92.9985 33.2497C92.8541 33.2497 92.6523 33.2782 92.6234 33.2782H92.5946C92.3639 33.3349 91.7873 33.6193 91.7873 34.1029C91.7873 34.5295 92.0468 35.0415 93.2866 35.1269C93.5462 35.1554 93.8057 35.1554 94.0942 35.1838C95.7379 35.2975 97.7855 35.4399 98.7371 35.7525C100.064 36.2361 100.9 37.4022 100.9 38.7961C100.9 40.9009 99.3715 42.8635 96.8339 44.0863C95.5938 44.6268 94.3537 44.9113 92.9985 44.9113ZM109.436 25.0865C108.83 25.0865 108.282 25.2286 107.879 25.5131C106.754 26.1957 106.177 27.5611 106.177 29.552C106.177 33.2782 108.081 35.8949 110.791 35.8949C111.599 35.8949 112.233 35.6674 112.781 35.2123C113.617 34.5295 114.05 33.1643 114.05 31.2586C114.05 27.5611 112.176 25.0865 109.436 25.0865ZM109.955 37.2601C105.053 37.2601 103.294 33.7048 103.294 30.3769C103.294 28.0447 104.245 26.2526 106.148 24.9726C107.504 24.1479 109.119 23.6928 110.561 23.6928C114.309 23.6928 116.934 26.3381 116.934 30.1494C116.934 32.7377 115.896 34.7855 113.906 36.037C112.954 36.6627 111.311 37.2601 109.955 37.2601H109.955ZM58.5658 25.0865C57.9601 25.0865 57.4124 25.2286 57.0084 25.5131C55.8839 26.1957 55.307 27.5611 55.307 29.552C55.307 33.2782 57.2103 35.8949 59.9211 35.8949C60.7286 35.8949 61.363 35.6674 61.911 35.2123C62.7471 34.5295 63.1799 33.1643 63.1799 31.2586C63.1799 27.5611 61.3341 25.0865 58.5658 25.0865ZM59.0849 37.2601C54.1824 37.2601 52.4232 33.7048 52.4232 30.3769C52.4232 28.0447 53.3749 26.2526 55.2781 24.9726C56.6337 24.1479 58.2485 23.6928 59.6904 23.6928C63.4395 23.6928 66.0637 26.3381 66.0637 30.1494C66.0637 32.7377 65.0254 34.7855 63.0356 36.037C62.1128 36.6627 60.4691 37.2601 59.0849 37.2601ZM26.1231 36.9756C26.0653 36.8905 26.0076 36.6345 26.0364 36.3215C26.0364 36.094 26.0942 35.9516 26.1231 35.8949C26.7285 35.8095 27.0458 35.7241 27.3917 35.6389C27.9686 35.4965 28.1993 35.1838 28.2281 34.4728C28.3148 32.7662 28.3148 29.5235 28.2859 27.2767V27.2197C28.2859 26.9637 28.2859 26.6508 27.9686 26.4232C27.5072 26.139 26.9592 25.883 26.2383 25.6837C25.9787 25.5985 25.8058 25.4561 25.8346 25.2856C25.8346 25.115 26.0076 24.9159 26.3826 24.859C27.3343 24.7736 29.8141 24.1764 30.7946 23.7498C30.8524 23.8065 30.939 23.9773 30.939 24.2049L30.9101 24.5175C30.8812 24.8305 30.8524 25.2004 30.8524 25.57C30.8524 25.6837 30.9678 25.7691 31.0831 25.7691C31.1408 25.7691 31.1985 25.7406 31.2563 25.7122C33.1018 24.29 34.7744 23.778 35.6394 23.778C37.0527 23.778 38.1484 24.4324 38.9848 25.7976C39.0423 25.883 39.1 25.9112 39.1867 25.9112C39.2444 25.9112 39.3307 25.883 39.3596 25.8261C41.0611 24.546 42.7625 23.778 43.8871 23.778C46.5691 23.778 48.1553 25.7406 48.1553 29.0684C48.1553 30.007 48.1553 31.2301 48.1264 32.3396C48.1264 33.3349 48.0976 34.2452 48.0976 34.8994C48.0976 35.0415 48.2994 35.4965 48.6167 35.582C49.0203 35.781 49.5683 35.8664 50.2893 35.9801H50.3181C50.3759 36.1791 50.2604 36.9187 50.1452 37.061C49.972 37.061 49.7124 37.061 49.4242 37.0326C48.8762 37.0041 48.0976 36.9756 47.2325 36.9756C45.4445 36.9756 44.5217 37.0041 43.6275 37.061C43.5701 36.8335 43.5412 36.1509 43.6275 35.9801C44.1467 35.8949 44.4062 35.8095 44.7235 35.7241C45.3004 35.5535 45.4445 35.2975 45.4733 34.5579C45.4733 34.0177 45.5885 29.4099 45.4156 28.3004C45.2426 27.1628 44.3774 25.8261 42.4741 25.8261C41.7531 25.8261 40.6285 26.1105 39.5326 26.9352C39.4751 26.9922 39.4174 27.1343 39.4174 27.2197V27.2482C39.5326 27.8454 39.5326 28.5282 39.5326 29.5805V31.4292C39.5326 32.7092 39.5037 33.9038 39.5326 34.8139C39.5326 35.4399 39.9076 35.582 40.2249 35.6959C40.3979 35.7241 40.5131 35.7525 40.6574 35.781C40.917 35.838 41.1765 35.8949 41.5802 35.9801C41.6379 36.094 41.6379 36.4636 41.5513 36.7766C41.5224 36.9471 41.4647 37.0326 41.4361 37.061C40.4556 37.0326 39.4462 37.0041 37.9755 37.0041C37.543 37.0041 36.7931 37.0326 36.1585 37.0326C35.6394 37.0326 35.1492 37.061 34.861 37.061C34.8321 37.0041 34.7744 36.805 34.7744 36.4921C34.7744 36.2361 34.8321 36.037 34.8899 35.9801C35.0339 35.9516 35.1492 35.9234 35.2935 35.9234C35.6394 35.8664 35.9278 35.8095 36.2163 35.7525C36.7065 35.6104 36.8795 35.3544 36.9083 34.7288C36.995 33.3066 37.0813 29.2393 36.8795 28.2153C36.5336 26.5656 35.5819 25.7406 34.0534 25.7406C33.1595 25.7406 32.0347 26.1672 31.1119 26.8501C30.9678 26.9637 30.8524 27.2482 30.8524 27.5042V29.1823C30.8524 31.2301 30.8524 33.7902 30.8812 34.8994C30.9101 35.2405 31.0253 35.6389 31.6888 35.781C31.8329 35.8095 32.0636 35.8664 32.352 35.8949L32.8711 35.9801C32.9289 36.1509 32.9 36.8335 32.7845 37.061C32.4961 37.061 32.1502 37.0326 31.7463 37.0326C31.1408 37.0041 30.3621 36.9756 29.4971 36.9756C28.4877 36.9756 27.7668 37.0041 27.1899 37.0326C26.7863 36.9756 26.469 36.9756 26.1231 36.9756Z" fill="#442D22"/>
<path fill-rule="evenodd" clip-rule="evenodd" d="M10.9541 43.8024L9.77175 43.404C9.77175 43.404 9.9161 37.4594 7.75327 37.0329C6.31138 35.3832 7.98396 -32.9369 13.1746 36.8053C13.1746 36.8053 11.3869 37.687 11.0696 39.1945C10.7234 40.6736 10.9541 43.8024 10.9541 43.8024Z" fill="white"/>
<path fill-rule="evenodd" clip-rule="evenodd" d="M10.9541 43.8024L9.77175 43.404C9.77175 43.404 9.9161 37.4594 7.75327 37.0329C6.31138 35.3832 7.98396 -32.9369 13.1746 36.8053C13.1746 36.8053 11.3869 37.687 11.0696 39.1945C10.7234 40.6736 10.9541 43.8024 10.9541 43.8024Z" fill="#A6A385"/>
<path fill-rule="evenodd" clip-rule="evenodd" d="M11.5887 38.0567C11.5887 38.0567 21.9415 31.3441 19.5191 17.3785C17.1833 7.22446 11.675 3.89664 11.0696 2.61661C10.4064 1.70649 9.77176 0.11377 9.77176 0.11377L10.2045 28.3575C10.2045 28.3859 9.31038 37.0042 11.5887 38.0567Z" fill="white"/>
<path fill-rule="evenodd" clip-rule="evenodd" d="M11.5887 38.0567C11.5887 38.0567 21.9415 31.3441 19.5191 17.3785C17.1833 7.22446 11.675 3.89664 11.0696 2.61661C10.4064 1.70649 9.77176 0.11377 9.77176 0.11377L10.2045 28.3575C10.2045 28.3859 9.31038 37.0042 11.5887 38.0567Z" fill="#499D4A"/>
<path fill-rule="evenodd" clip-rule="evenodd" d="M9.16628 38.4264C9.16628 38.4264 -0.552162 31.8844 0.0247011 20.3652C0.572424 8.84578 7.43596 3.1857 8.76237 2.16168C9.62767 1.25155 9.65654 0.910125 9.71428 0C10.3197 1.28003 10.2045 19.1422 10.2909 21.2469C10.5504 29.3531 9.82949 36.8907 9.16628 38.4264Z" fill="white"/>
<path fill-rule="evenodd" clip-rule="evenodd" d="M9.16628 38.4264C9.16628 38.4264 -0.552162 31.8844 0.0247011 20.3652C0.572424 8.84578 7.43596 3.1857 8.76237 2.16168C9.62767 1.25155 9.65654 0.910125 9.71428 0C10.3197 1.28003 10.2045 19.1422 10.2909 21.2469C10.5504 29.3531 9.82949 36.8907 9.16628 38.4264Z" fill="#58AA50"/>
</svg>
