<svg width="104" height="65" fill="none" xmlns="http://www.w3.org/2000/svg"><path d="M51.366 64.813c-.352 0-.68-.096-.986-.263l-3.122-1.89c-.47-.264-.235-.36-.094-.407.634-.215.751-.263 1.408-.646.07-.048.165-.024.235.024l2.395 1.46c.094.047.211.047.282 0l9.367-5.528c.093-.047.14-.143.14-.263V46.271c0-.12-.047-.215-.14-.263l-9.367-5.503c-.094-.048-.212-.048-.282 0l-9.367 5.503c-.094.048-.141.167-.141.263v11.03c0 .095.047.215.14.262l2.56 1.508c1.385.718 2.253-.12 2.253-.957V47.228c0-.144.118-.287.282-.287h1.197c.141 0 .282.12.282.287v10.886c0 1.89-1.01 2.99-2.77 2.99-.54 0-.963 0-2.16-.598l-2.465-1.435a2.027 2.027 0 01-.986-1.747v-11.03c0-.717.376-1.387.986-1.746l9.367-5.526a2.06 2.06 0 011.972 0l9.367 5.526c.61.36.986 1.03.986 1.747v11.03c0 .717-.375 1.387-.986 1.746l-9.367 5.526a2.364 2.364 0 01-.986.216zm2.888-7.584c-4.109 0-4.954-1.914-4.954-3.541 0-.144.118-.287.282-.287h1.22c.142 0 .259.095.259.239.188 1.268.728 1.89 3.216 1.89 1.972 0 2.817-.455 2.817-1.531 0-.622-.234-1.077-3.31-1.388-2.559-.263-4.155-.837-4.155-2.919 0-1.938 1.596-3.086 4.273-3.086 3.005 0 4.483 1.053 4.671 3.35a.39.39 0 01-.07.215c-.047.048-.117.095-.188.095h-1.22a.276.276 0 01-.259-.215c-.282-1.316-1.01-1.746-2.934-1.746-2.16 0-2.419.765-2.419 1.34 0 .693.306.908 3.217 1.291 2.887.383 4.249.933 4.249 2.99-.023 2.106-1.714 3.303-4.695 3.303z" fill="#539E43"/><path d="M22.302 21.676c0-.43-.234-.837-.61-1.053l-9.954-5.837a1.424 1.424 0 00-.54-.168h-.094a1.1 1.1 0 00-.54.168L.61 20.623c-.375.216-.61.622-.61 1.053l.023 15.695c0 .215.118.43.306.526.187.12.422.12.587 0l5.916-3.445c.375-.215.61-.622.61-1.053v-7.345c0-.43.235-.837.61-1.052l2.512-1.484c.188-.12.4-.167.61-.167.212 0 .423.048.588.167l2.512 1.484c.375.215.61.622.61 1.052V33.4c0 .43.235.838.61 1.053l5.916 3.445c.188.12.423.12.61 0a.596.596 0 00.306-.526l-.024-15.695zM70.147.072a.635.635 0 00-.587 0 .626.626 0 00-.305.526V16.15c0 .144-.07.287-.211.383a.441.441 0 01-.423 0l-2.488-1.46a1.19 1.19 0 00-1.197 0l-9.955 5.862c-.375.216-.61.622-.61 1.053v11.7c0 .43.235.837.61 1.052l9.955 5.861a1.19 1.19 0 001.197 0l9.954-5.861c.375-.215.61-.622.61-1.053V4.522c0-.455-.235-.861-.61-1.077L70.147.072zm-.915 29.762c0 .12-.047.216-.141.264l-3.404 2.01a.342.342 0 01-.305 0l-3.405-2.01c-.093-.048-.14-.168-.14-.264v-4.019c0-.12.046-.215.14-.263l3.405-2.01a.342.342 0 01.305 0l3.404 2.01c.094.048.14.167.14.263v4.02zm34.04-4.114a1.2 1.2 0 00.587-1.053v-2.848c0-.43-.235-.837-.587-1.052l-9.883-5.838a1.19 1.19 0 00-1.198 0l-9.954 5.862c-.375.215-.61.622-.61 1.052v11.7c0 .43.235.837.61 1.052l9.884 5.742c.376.216.822.216 1.174 0l5.986-3.397a.596.596 0 00.305-.526.596.596 0 00-.305-.527l-10-5.861a.626.626 0 01-.306-.527v-3.66c0-.215.118-.43.305-.526l3.123-1.819a.564.564 0 01.61 0l3.122 1.819c.188.12.306.31.306.526v2.87c0 .216.117.431.305.527.188.12.422.12.61 0l5.916-3.517z" fill="#333"/><path d="M92.638 25.169a.21.21 0 01.234 0l1.902 1.124c.07.048.117.12.117.216v2.248a.252.252 0 01-.117.216l-1.902 1.124a.21.21 0 01-.234 0l-1.902-1.124a.253.253 0 01-.118-.216V26.51c0-.096.047-.168.118-.216l1.901-1.124z" fill="#539E43"/><mask id="a" style="mask-type:alpha" maskUnits="userSpaceOnUse" x="27" y="14" width="23" height="27"><path d="M38.947 14.977a1.19 1.19 0 00-1.197 0l-9.884 5.814a1.2 1.2 0 00-.587 1.052v11.652c0 .43.235.837.587 1.053l9.884 5.813a1.19 1.19 0 001.197 0l9.884-5.813a1.2 1.2 0 00.587-1.053V21.843c0-.43-.235-.837-.587-1.052l-9.884-5.814z" fill="#fff"/></mask><g mask="url(#a)"><path d="M38.947 14.977a1.19 1.19 0 00-1.197 0l-9.884 5.814a1.2 1.2 0 00-.587 1.052v11.652c0 .43.235.837.587 1.053l9.884 5.813a1.19 1.19 0 001.197 0l9.884-5.813a1.2 1.2 0 00.587-1.053V21.843c0-.43-.235-.837-.587-1.052l-9.884-5.814z" fill="url(#paint0_linear_15_1923)"/><path d="M48.854 20.79l-9.93-5.814a1.614 1.614 0 00-.306-.12L27.491 34.283c.094.12.211.216.328.288l9.93 5.813c.283.168.611.216.916.12l10.447-19.475c-.07-.096-.164-.167-.258-.24z" fill="url(#paint1_linear_15_1923)"/><path fill-rule="evenodd" clip-rule="evenodd" d="M48.878 34.547c.281-.167.493-.454.587-.765L38.57 14.833c-.281-.048-.586-.024-.845.144l-9.86 5.79L38.5 40.529a1.61 1.61 0 00.446-.144l9.93-5.838z" fill="url(#paint2_linear_15_1923)"/><path fill-rule="evenodd" clip-rule="evenodd" d="M48.878 34.547l-9.907 5.814c-.141.072-.282.12-.446.144l.187.358L49.7 34.38v-.144l-.281-.478a1.111 1.111 0 01-.54.79z" fill="url(#paint3_linear_15_1923)"/><path fill-rule="evenodd" clip-rule="evenodd" d="M48.878 34.547l-9.907 5.814c-.141.072-.282.12-.446.144l.187.358L49.7 34.38v-.144l-.281-.478a1.111 1.111 0 01-.54.79z" fill="url(#paint4_linear_15_1923)"/></g><defs><linearGradient id="paint0_linear_15_1923" x1="42.375" y1="19.311" x2="31.247" y2="36.468" gradientUnits="userSpaceOnUse"><stop stop-color="#41873F"/><stop offset=".329" stop-color="#418B3D"/><stop offset=".635" stop-color="#419637"/><stop offset=".932" stop-color="#3FA92D"/><stop offset="1" stop-color="#3FAE2A"/></linearGradient><linearGradient id="paint1_linear_15_1923" x1="36.848" y1="29.033" x2="64.211" y2="14.445" gradientUnits="userSpaceOnUse"><stop offset=".138" stop-color="#41873F"/><stop offset=".403" stop-color="#54A044"/><stop offset=".714" stop-color="#66B848"/><stop offset=".908" stop-color="#6CC04A"/></linearGradient><linearGradient id="paint2_linear_15_1923" x1="26.919" y1="27.669" x2="49.788" y2="27.669" gradientUnits="userSpaceOnUse"><stop offset=".092" stop-color="#6CC04A"/><stop offset=".286" stop-color="#66B848"/><stop offset=".597" stop-color="#54A044"/><stop offset=".862" stop-color="#41873F"/></linearGradient><linearGradient id="paint3_linear_15_1923" x1="26.919" y1="37.33" x2="49.788" y2="37.33" gradientUnits="userSpaceOnUse"><stop offset=".092" stop-color="#6CC04A"/><stop offset=".286" stop-color="#66B848"/><stop offset=".597" stop-color="#54A044"/><stop offset=".862" stop-color="#41873F"/></linearGradient><linearGradient id="paint4_linear_15_1923" x1="53.12" y1="18.76" x2="47.111" y2="49.658" gradientUnits="userSpaceOnUse"><stop stop-color="#41873F"/><stop offset=".329" stop-color="#418B3D"/><stop offset=".635" stop-color="#419637"/><stop offset=".932" stop-color="#3FA92D"/><stop offset="1" stop-color="#3FAE2A"/></linearGradient></defs></svg>