<svg width="72" height="65" viewBox="0 0 72 65" fill="none" xmlns="http://www.w3.org/2000/svg">
<path d="M0.212097 32.4294C0.212097 37.8596 5.48904 42.9288 13.8086 45.7861C12.1473 54.1903 13.5108 60.9639 18.0654 63.6034C22.747 66.3162 29.7215 64.4383 36.3412 58.624C42.7938 64.2036 49.3154 66.3995 53.8657 63.7525C58.5428 61.0319 59.9654 53.7988 58.2581 45.1323C66.9234 42.2536 71.7705 37.931 71.7705 32.4294C71.7705 27.1252 66.4837 22.5363 58.2764 19.6972C60.1144 10.6726 58.557 4.0633 53.8139 1.31488C49.2411 -1.33477 42.6438 0.974672 36.0962 6.70042C29.2846 0.622991 22.7524 -1.23252 18.0139 1.52391C13.4455 4.18109 12.1419 11.0779 13.8086 19.6376C5.76996 22.4539 0.212097 27.1464 0.212097 32.4294Z" fill="white"/>
<path d="M56.5381 22.5163C55.8789 22.2883 55.1958 22.0726 54.4924 21.8685C54.608 21.3944 54.7141 20.9265 54.8084 20.4665C56.357 12.9131 55.3445 6.82803 51.887 4.82457C48.5718 2.90352 43.1499 4.90652 37.674 9.695C37.1475 10.1555 36.6194 10.643 36.0916 11.1539C35.7399 10.8159 35.3888 10.4892 35.0386 10.1767C29.2998 5.05656 23.5474 2.89886 20.0934 4.90811C16.7813 6.83474 15.8004 12.5553 17.1944 19.7137C17.329 20.4051 17.4863 21.1112 17.6643 21.8291C16.8501 22.0613 16.0642 22.3089 15.3122 22.5722C8.584 24.9293 4.28708 28.6234 4.28708 32.4552C4.28708 36.4127 8.89983 40.3821 15.9078 42.7889C16.4608 42.9789 17.0346 43.1585 17.626 43.329C17.4341 44.1054 17.2671 44.8663 17.1269 45.6084C15.7978 52.6426 16.8358 58.228 20.1391 60.1424C23.5511 62.1195 29.2774 60.0873 34.8533 55.1897C35.294 54.8025 35.7363 54.392 36.1794 53.9616C36.7537 54.5174 37.3271 55.0433 37.8974 55.5366C43.2984 60.2067 48.6327 62.0926 51.933 60.1728C55.3416 58.19 56.4493 52.1899 55.0112 44.8899C54.9013 44.3324 54.7735 43.7628 54.6299 43.1831C55.0321 43.0637 55.4269 42.9403 55.8118 42.8121C63.0972 40.3866 67.8373 36.4655 67.8373 32.4552C67.8373 28.6096 63.4018 24.8906 56.5381 22.5163Z" fill="#53C1DE"/>
<path d="M54.958 40.2227C54.6105 40.3383 54.254 40.45 53.8906 40.5583C53.0864 37.9998 52.0009 35.2793 50.6725 32.4684C51.9401 29.7246 52.9836 27.0388 53.7654 24.4969C54.4155 24.6859 55.0465 24.8853 55.6545 25.0957C61.5353 27.1299 65.1225 30.1376 65.1225 32.4551C65.1225 34.9237 61.2484 38.1283 54.958 40.2227ZM52.3479 45.4197C52.9839 48.6476 53.0747 51.5661 52.6535 53.8476C52.275 55.8977 51.5138 57.2645 50.5726 57.8119C48.5699 58.9767 44.287 57.4626 39.668 53.4686C39.1385 53.0108 38.6051 52.5219 38.0701 52.0045C39.8607 50.0366 41.6504 47.7489 43.3971 45.2081C46.4693 44.9342 49.3718 44.4864 52.0039 43.875C52.1336 44.4004 52.2487 44.9158 52.3479 45.4197ZM25.9528 57.6106C23.9961 58.305 22.4377 58.3249 21.4956 57.779C19.491 56.6173 18.6577 52.1327 19.7944 46.1171C19.9246 45.4282 20.0796 44.7205 20.2582 43.9971C22.8615 44.5756 25.7428 44.9918 28.8223 45.2427C30.5807 47.7289 32.4221 50.0141 34.2777 52.0151C33.8722 52.4084 33.4684 52.7828 33.0668 53.1356C30.6012 55.3013 28.1303 56.8378 25.9528 57.6106ZM16.7858 40.2076C13.687 39.1433 11.1279 37.7601 9.37382 36.2508C7.79762 34.8944 7.00183 33.5478 7.00183 32.4551C7.00183 30.1299 10.4518 27.164 16.2058 25.1482C16.904 24.9036 17.6349 24.6731 18.3933 24.4565C19.1885 27.0558 20.2317 29.7734 21.4906 32.5215C20.2154 35.3104 19.1574 38.0713 18.3544 40.7011C17.8137 40.5449 17.2899 40.3806 16.7858 40.2076ZM19.8587 19.1897C18.6644 13.0566 19.4575 8.42998 21.4535 7.269C23.5796 6.03221 28.2809 7.79561 33.236 12.2166C33.5527 12.4992 33.8707 12.7949 34.1895 13.1009C32.3431 15.0931 30.5186 17.3612 28.7758 19.8327C25.787 20.1111 22.926 20.5583 20.2955 21.1571C20.1301 20.4886 19.9837 19.8318 19.8587 19.1897ZM47.2714 25.9913C46.6426 24.8999 45.997 23.8343 45.3389 22.7978C47.3665 23.0554 49.3092 23.3973 51.1336 23.8157C50.5859 25.5795 49.9032 27.4238 49.0996 29.3143C48.5231 28.2146 47.9134 27.1058 47.2714 25.9913ZM36.0925 15.0505C37.3448 16.4137 38.5988 17.9357 39.8322 19.587C38.5893 19.528 37.331 19.4973 36.0622 19.4973C34.8055 19.4973 33.5564 19.5273 32.3212 19.5853C33.5559 17.9493 34.8207 16.4294 36.0925 15.0505ZM24.8421 26.0102C24.214 27.1047 23.6156 28.2075 23.0482 29.3123C22.2576 27.4283 21.5812 25.5757 21.0288 23.7868C22.8419 23.3791 24.7755 23.0457 26.7902 22.793C26.1228 23.8391 25.4719 24.9126 24.8421 26.01V26.0102ZM26.8483 42.3118C24.7667 42.0785 22.804 41.7623 20.9913 41.3658C21.5526 39.545 22.2439 37.6528 23.0512 35.7282C23.6201 36.8323 24.2209 37.9355 24.8528 39.0324H24.853C25.4967 40.1498 26.1637 41.2444 26.8483 42.3118ZM36.1677 50.0521C34.8809 48.6571 33.5975 47.114 32.344 45.4541C33.5608 45.5021 34.8014 45.5266 36.0622 45.5266C37.3575 45.5266 38.6381 45.4973 39.8984 45.4409C38.6609 47.1307 37.4114 48.6762 36.1677 50.0521ZM49.1255 35.6301C49.9749 37.5755 50.691 39.4578 51.2595 41.2476C49.4169 41.67 47.4275 42.0102 45.3314 42.263C45.9911 41.2125 46.6423 40.1286 47.2822 39.0136C47.9296 37.8856 48.5443 36.7559 49.1255 35.6301ZM44.9306 37.6508C43.9372 39.3815 42.9173 41.0338 41.882 42.5934C39.9962 42.7289 38.0479 42.7987 36.0622 42.7987C34.0846 42.7987 32.1609 42.7369 30.3084 42.6161C29.2313 41.0361 28.1893 39.3789 27.2022 37.6657H27.2024C26.218 35.957 25.3119 34.234 24.4909 32.5206C25.3117 30.8032 26.2154 29.0783 27.1942 27.3727L27.194 27.3731C28.1754 25.663 29.2083 24.0139 30.2754 22.4437C32.1654 22.3002 34.1035 22.2253 36.0621 22.2253H36.0622C38.0297 22.2253 39.9702 22.3008 41.8597 22.4456C42.9105 24.0043 43.9364 25.648 44.9217 27.3583C45.9181 29.0878 46.8335 30.8013 47.6613 32.4818C46.836 34.1913 45.9227 35.922 44.9306 37.6508ZM50.531 7.18785C52.6591 8.421 53.4867 13.3943 52.1496 19.9158C52.0643 20.332 51.9683 20.7558 51.864 21.1854C49.2274 20.5741 46.3644 20.1192 43.3669 19.8366C41.6207 17.3379 39.8111 15.0663 37.9947 13.0997C38.4831 12.6276 38.9707 12.1775 39.4563 11.7528C44.1481 7.65001 48.5331 6.03017 50.531 7.18785Z" fill="white"/>
<path d="M36.0622 26.7529C39.1963 26.7529 41.737 29.3058 41.737 32.4552C41.737 35.6044 39.1963 38.1574 36.0622 38.1574C32.9281 38.1574 30.3874 35.6044 30.3874 32.4552C30.3874 29.3058 32.9281 26.7529 36.0622 26.7529Z" fill="#53C1DE"/>
</svg>
